<?xml version="1.0" encoding="UTF-8" standalone="no"?>
<svg
   viewBox="0 0 256.04119 35.43311"
   width="255.99998"
   height="35"
   version="1.1"
   id="svg16"
   xmlns="http://www.w3.org/2000/svg"
   xmlns:svg="http://www.w3.org/2000/svg">
  <defs
     id="defs16" />
  <path
     d="M 0,35.43311 V 7.60445 C 0,5.49211 0.73932,3.71171 2.21795,2.26325 3.69659,0.75445 5.49208,4e-5 7.60441,4e-5 h 20.22424 c 2.11234,0 3.89274,0.75441 5.3412,2.26322 1.50881,1.47864 2.26322,3.25903 2.26322,5.3412 V 35.43312 H 26.01808 V 9.41503 H 22.42403 V 35.43311 H 13.00904 V 9.41503 H 9.41499 v 26.01808 z"
     id="path1" />
  <path
     d="m 46.63154,35.43311 c -2.14251,0 -3.938,-0.73932 -5.38646,-2.21795 -1.47864,-1.50881 -2.21795,-3.3043 -2.21795,-5.38646 V 7.60445 c 0,-2.11234 0.73932,-3.89274 2.21795,-5.3412 C 42.72371,0.75445 44.5192,4e-5 46.63154,4e-5 h 17.38152 c 2.11234,0 3.89274,0.75441 5.3412,2.26322 1.50881,1.47864 2.26322,3.25903 2.26322,5.3412 V 27.8287 c 0,2.14251 -0.75441,3.95309 -2.26322,5.43172 -1.50881,1.44846 -3.28921,2.17269 -5.3412,2.17269 z M 62.20248,26.01812 V 9.41503 H 48.44211 v 16.60309 z"
     id="path2" />
  <path
     d="m 82.8159,22.42407 h 15.57098 v 9.8e-4 h 9.41498 v -1.81158 c 0,-2.08215 -0.75439,-3.86255 -2.26324,-5.34119 -1.44843,-1.50879 -3.22882,-2.26318 -5.34119,-2.26318 H 84.62651 V 9.41504 h 23.17535 V 0 H 82.8159 c -2.1123,0 -3.90778,0.75446 -5.38641,2.26324 -1.47864,1.44849 -2.21796,3.22888 -2.21796,5.34119 v 7.21521 c 0,2.08215 0.73932,3.87762 2.21796,5.38647 1.44843,1.47864 3.24396,2.21796 5.38641,2.21796 z"
     id="path3" />
  <path
     d="m 89.6845,26.0191 v -9.8e-4 H 75.21154 v 9.41498 h 24.9859 c 2.052,0 3.8324,-0.72424 5.34119,-2.17273 1.50885,-1.47858 2.26324,-3.28918 2.26324,-5.4317 V 26.0191 Z"
     id="path4" />
  <path
     d="m 184.59789,26.0191 -0.25433,1.80957 c -0.29266,2.08215 0.19434,3.87762 1.46094,5.38647 1.24066,1.47864 2.93225,2.21796 5.07477,2.21796 h 24.9859 l 1.32306,-9.414 H 184.5979 Z"
     id="path5" />
  <path
     d="m 148.4135,26.0191 -0.25433,1.80957 c -0.29266,2.08215 0.19434,3.87762 1.46094,5.38647 1.24066,1.47864 2.93219,2.21796 5.07471,2.21796 h 24.98596 l 1.32306,-9.414 h -32.59033 z"
     id="path6" />
  <path
     d="m 112.22905,26.0191 -1.32306,9.41401 h 9.41504 l 1.32306,-9.41401 z"
     id="path7" />
  <path
     d="m 130.90605,9.414 h 16.24725 l 0.25415,-1.80823 c 0.2926,-2.08215 -0.21161,-3.86255 -1.51257,-5.34119 -1.23645,-1.50878 -2.91082,-2.26324 -5.02313,-2.26324 H 115.88579 L 114.56291,9.414 Z"
     id="path8" />
  <path
     d="m 137.2332,13.00806 -3.1e-4,0.0024 h -13.76038 l 3.1e-4,-0.0024 h -9.41498 l -1.32367,9.41833 h 9.41504 l 1.2e-4,-9.8e-4 h 15.57092 c 2.052,0 3.93414,-0.72424 5.64655,-2.17273 1.71661,-1.47864 2.72546,-3.28918 3.02661,-5.4317 l 0.25482,-1.81293 h -9.41504 z"
     id="path9" />
  <path
     d="m 255.70629,9.414 0.25433,-1.80957 C 256.25322,5.52228 255.74907,3.74188 254.44805,2.26324 253.21166,0.75445 251.53728,0 249.42492,0 h -24.9859 l -1.32306,9.414 z"
     id="path10" />
  <path
     d="m 245.78624,13.00806 -1.82849,13.01007 h -4.64532 v 9.8e-4 h -18.53015 l -1.32306,9.414 h 24.9859 c 2.052,0 3.9342,-0.72424 5.64655,-2.17273 1.71667,-1.47858 2.72552,-3.28918 3.02661,-5.4317 l 2.08289,-14.82062 h -9.41492 z"
     id="path11" />
  <path
     d="m 232.02587,13.00806 h -9.41498 l -1.32349,9.41699 h 9.41498 z"
     id="path12" />
  <path
     d="m 195.84142,13.00806 h -9.41492 l -1.32349,9.41699 h 9.41498 l 1.2e-4,-9.8e-4 h 16.91126 l 1.32318,-9.41498 h -16.91126 z"
     id="path13" />
  <path
     d="M 191.70812,9.414 H 219.5219 L 220.84496,0 H 195.859 c -2.1123,0 -4.01379,0.75446 -5.70453,2.26324 -1.68219,1.44849 -2.67169,3.22888 -2.96857,5.34119 L 186.93157,9.414 Z"
     id="path14" />
  <path
     d="m 161.70812,9.414 h 21.62939 L 184.66057,0 h -24.98596 c -2.1123,0 -4.01385,0.75446 -5.70453,2.26324 -1.68219,1.44849 -2.67175,3.22888 -2.96863,5.34119 L 150.74712,9.414 Z"
     id="path15" />
  <path
     d="m 159.65703,13.00806 h -9.41498 l -1.32348,9.41699 h 9.41503 l 1.3e-4,-9.8e-4 h 16.91125 l 1.32318,-9.41498 h -16.91125 z"
     id="path16" />
</svg>
